<?xml version="1.0" encoding="UTF-8" standalone="no"?>
<svg
   xmlns:dc="http://purl.org/dc/elements/1.1/"
   xmlns:cc="http://creativecommons.org/ns#"
   xmlns:rdf="http://www.w3.org/1999/02/22-rdf-syntax-ns#"
   xmlns:svg="http://www.w3.org/2000/svg"
   xmlns="http://www.w3.org/2000/svg"
   xmlns:sodipodi="http://sodipodi.sourceforge.net/DTD/sodipodi-0.dtd"
   xmlns:inkscape="http://www.inkscape.org/namespaces/inkscape"
   version="1.1"
   id="Capa_1"
   x="0px"
   y="0px"
   viewBox="0 0 230.17 230.17"
   style="enable-background:new 0 0 230.17 230.17;"
   xml:space="preserve"
   sodipodi:docname="email(2).svg"
   inkscape:version="1.0.2-2 (e86c870879, 2021-01-15)"><metadata
   id="metadata2177"><rdf:RDF><cc:Work
       rdf:about=""><dc:format>image/svg+xml</dc:format><dc:type
         rdf:resource="http://purl.org/dc/dcmitype/StillImage" /></cc:Work></rdf:RDF></metadata><defs
   id="defs2175" /><sodipodi:namedview
   pagecolor="#ffffff"
   bordercolor="#666666"
   borderopacity="1"
   objecttolerance="10"
   gridtolerance="10"
   guidetolerance="10"
   inkscape:pageopacity="0"
   inkscape:pageshadow="2"
   inkscape:window-width="2560"
   inkscape:window-height="1018"
   id="namedview2173"
   showgrid="false"
   inkscape:zoom="3.6929227"
   inkscape:cx="62.958264"
   inkscape:cy="115.085"
   inkscape:window-x="-8"
   inkscape:window-y="32"
   inkscape:window-maximized="1"
   inkscape:current-layer="Capa_1" />
<g
   id="g2140"
   style="fill:#2d7dbc;fill-opacity:1">
	<path
   d="M230,49.585c0-0.263,0.181-0.519,0.169-0.779l-70.24,67.68l70.156,65.518c0.041-0.468-0.085-0.94-0.085-1.418V49.585z"
   id="path2132"
   style="fill:#2d7dbc;fill-opacity:1" />
	<path
   d="M149.207,126.901l-28.674,27.588c-1.451,1.396-3.325,2.096-5.2,2.096c-1.836,0-3.672-0.67-5.113-2.013l-28.596-26.647   L11.01,195.989c1.717,0.617,3.56,1.096,5.49,1.096h197.667c2.866,0,5.554-0.873,7.891-2.175L149.207,126.901z"
   id="path2134"
   style="fill:#2d7dbc;fill-opacity:1" />
	<path
   d="M115.251,138.757L222.447,35.496c-2.427-1.443-5.252-2.411-8.28-2.411H16.5c-3.943,0-7.556,1.531-10.37,3.866   L115.251,138.757z"
   id="path2136"
   style="fill:#2d7dbc;fill-opacity:1" />
	<path
   d="M0,52.1v128.484c0,1.475,0.339,2.897,0.707,4.256l69.738-67.156L0,52.1z"
   id="path2138"
   style="fill:#2d7dbc;fill-opacity:1" />
</g>
<g
   id="g2142">
</g>
<g
   id="g2144">
</g>
<g
   id="g2146">
</g>
<g
   id="g2148">
</g>
<g
   id="g2150">
</g>
<g
   id="g2152">
</g>
<g
   id="g2154">
</g>
<g
   id="g2156">
</g>
<g
   id="g2158">
</g>
<g
   id="g2160">
</g>
<g
   id="g2162">
</g>
<g
   id="g2164">
</g>
<g
   id="g2166">
</g>
<g
   id="g2168">
</g>
<g
   id="g2170">
</g>
</svg>
