<svg id="Capa_1" enable-background="new 0 0 512 512" height="512" viewBox="0 0 512 512" width="512" xmlns="http://www.w3.org/2000/svg"><g>
<path fill="#fff" d="m467 211h-422c-24.814 0-45 20.186-45 45v90c0 24.814 20.186 45 45 45h61v-15c0-24.814 20.186-45 45-45h210c24.814 0 45 20.186 45 45v15h61c24.814 0 45-20.186 45-45v-90c0-24.814-20.186-45-45-45zm-151 75c-8.284 0-15-6.716-15-15 0-8.286 6.716-15 15-15s15 6.714 15 15c0 8.284-6.716 15-15 15zm60 0c-8.284 0-15-6.716-15-15 0-8.286 6.716-15 15-15s15 6.714 15 15c0 8.284-6.716 15-15 15z"/>
<path fill="#fff" d="m331 32.518v58.482h58.482c-5.98-29.343-29.139-52.502-58.482-58.482z"/>
<path fill="#fff" d="m136 31c-8.291 0-15 6.709-15 15v135h270v-60h-75c-8.291 0-15-6.709-15-15v-75z"/>
<path fill="#fff" d="m361 481c8.291 0 15-6.709 15-15v-90c0-8.291-6.709-15-15-15h-210c-8.291 0-15 6.709-15 15v90c0 8.291 6.709 15 15 15zm-165-75h120c8.291 0 15 6.709 15 15s-6.709 15-15 15h-120c-8.291 0-15-6.709-15-15s6.709-15 15-15z"/></g></svg>